<svg width="16" height="16" viewBox="0 0 16 16" fill="none" xmlns="http://www.w3.org/2000/svg">
<path d="M8 3.5C6.34 3.5 5 4.84 5 6.5C5 8.16 6.34 9.5 8 9.5C9.66 9.5 11 8.16 11 6.5C11 4.84 9.66 3.5 8 3.5ZM8 8C7.17 8 6.5 7.33 6.5 6.5C6.5 5.67 7.17 5 8 5C8.83 5 9.5 5.67 9.5 6.5C9.5 7.33 8.83 8 8 8Z" fill="#AA2024"/>
<path d="M8 0C3.58 0 0 3.58 0 8C0 12.42 3.58 16 8 16C12.42 16 16 12.42 16 8C16 3.58 12.42 0 8 0ZM8 14.5C6.51 14.5 5.14 13.99 4.04 13.14C5.19 12.42 6.55 12 8 12C9.45 12 10.81 12.42 11.96 13.14C10.86 13.99 9.49 14.5 8 14.5ZM13.07 12.06C11.63 11.07 9.88 10.5 8 10.5C6.12 10.5 4.38 11.08 2.93 12.06C2.04 10.95 1.5 9.54 1.5 8C1.5 4.42 4.42 1.5 8 1.5C11.58 1.5 14.5 4.42 14.5 8C14.5 9.54 13.96 10.95 13.07 12.06Z" fill="#AA2024"/>
</svg>
