<svg width="66" height="70" viewBox="0 0 66 70" fill="none" xmlns="http://www.w3.org/2000/svg">
<path d="M62.9999 33.0013C63.0114 37.6599 61.9835 42.2554 59.9999 46.4137C57.648 51.3965 54.0324 55.5876 49.5581 58.5175C45.0838 61.4474 39.9274 63.0004 34.6666 63.0026C30.2671 63.0147 25.927 61.9263 22 59.826L3 66.5321L9.33332 46.4137C7.34976 42.2554 6.32186 37.6599 6.33333 33.0013C6.33536 27.4308 7.80203 21.9709 10.5691 17.2332C13.3361 12.4955 17.2942 8.66704 22 6.1767C25.927 4.07637 30.2671 2.98795 34.6666 3.0001H36.3333C43.2811 3.40597 49.8434 6.51117 54.7637 11.7211C59.684 16.9311 62.6166 23.8797 62.9999 31.2366V33.0013Z" stroke="#D50127" stroke-width="5" stroke-linecap="round" stroke-linejoin="round"/>
</svg>
