<svg width="68" height="72" viewBox="0 0 68 72" fill="none" xmlns="http://www.w3.org/2000/svg">
<path d="M34 68.6499C51.1208 68.6499 65 53.9536 65 35.8249C65 17.6962 51.1208 3 34 3C16.8792 3 3 17.6962 3 35.8249C3 53.9536 16.8792 68.6499 34 68.6499Z" stroke="#D50127" stroke-width="5" stroke-linecap="round" stroke-linejoin="round"/>
<path d="M34 56.237C44.4934 56.237 53 47.2297 53 36.1185C53 25.0074 44.4934 16 34 16C23.5066 16 15 25.0074 15 36.1185C15 47.2297 23.5066 56.237 34 56.237Z" stroke="#D50127" stroke-width="5" stroke-linecap="round" stroke-linejoin="round"/>
<path d="M34 43.8242C37.866 43.8242 41 40.5057 41 36.4121C41 32.3185 37.866 29 34 29C30.134 29 27 32.3185 27 36.4121C27 40.5057 30.134 43.8242 34 43.8242Z" stroke="#D50127" stroke-width="5" stroke-linecap="round" stroke-linejoin="round"/>
</svg>
