<svg width="65" height="52" viewBox="0 0 65 52" fill="none" xmlns="http://www.w3.org/2000/svg">
<path d="M48.5945 20.0743H45.2164C44.2133 15.9508 42.1406 12.2087 39.2339 9.27307C36.3272 6.33746 32.703 4.32608 28.773 3.46748C24.8431 2.60889 20.7651 2.93751 17.0023 4.416C13.2396 5.8945 9.94298 8.46358 7.48713 11.8313C5.03129 15.1991 3.51466 19.2304 3.1096 23.4673C2.70453 27.7043 3.42726 31.9768 5.19567 35.7995C6.96407 39.6223 9.70725 42.8419 13.1135 45.0925C16.5197 47.3431 20.4524 48.5345 24.4647 48.5314H48.5945C52.1499 48.5314 55.5596 47.0323 58.0736 44.3639C60.5876 41.6955 62 38.0765 62 34.3028C62 30.5292 60.5876 26.9101 58.0736 24.2417C55.5596 21.5733 52.1499 20.0743 48.5945 20.0743Z" stroke="#D50127" stroke-width="5" stroke-linecap="round" stroke-linejoin="round"/>
</svg>
